<svg width="135" height="26" viewBox="0 0 135 26" fill="none" xmlns="http://www.w3.org/2000/svg">
<path d="M0.94 15V5.74L2.86 7.66V15H0.94ZM6.92 7.64L12.8 1.76V15H10.88V6.4L8.26 9L7.64 9.62L6.92 10.36L2.86 6.3L0.94 4.38V1.68L6.92 7.64ZM25.8495 1.72H27.7495V10.18C27.7495 11.18 27.3895 12.16 26.7095 12.88C26.4495 13.18 26.1495 13.44 25.8495 13.66C24.7295 14.52 23.3495 15 21.8295 15C20.3295 15 18.9495 14.5 17.8295 13.66C17.5095 13.42 17.2295 13.16 16.9495 12.88C16.2695 12.14 15.9095 11.16 15.9095 10.16V1.72H17.8295V9.06C17.8295 11.22 19.5295 13.02 21.6895 13.1C21.7495 13.1 21.7895 13.1 21.8295 13.1C21.8895 13.1 21.9295 13.1 21.9695 13.1C24.1495 13.02 25.8495 11.22 25.8495 9.06V1.72ZM32.7991 13.1H41.2191V15H30.8791V1.62H32.7991V13.1ZM46.9255 15H45.0055V4.6H46.9255V15ZM52.0055 3.64H40.1455V1.72H52.0055V3.64ZM55.115 15H57.035V1.7H55.115V15ZM56.975 1.76V14.94H55.175V1.76H56.975ZM55.115 1.7H57.035V15H55.115V1.7ZM62.6831 1.68L66.8831 9.3L65.6231 11.58L60.1431 1.68H62.6831ZM72.3831 1.68H74.9031L68.7831 12.72L67.5231 15L66.2631 12.72L67.5231 10.44L72.3831 1.68ZM79.6941 8.84V13.1H89.5341V15H77.7741V4.6H79.6941V6.92H88.2341V8.84H79.6941ZM77.7741 1.72H89.5341V3.64H77.7741V1.72ZM100.84 8.14L105.02 15H102.78L98.9603 8.74L98.8403 8.56C98.8403 8.56 98.8403 8.56 98.8203 8.56C98.7803 8.58 98.7603 8.58 98.7203 8.6C98.7003 8.6 98.7003 8.6 98.6803 8.6C98.6403 8.62 98.5803 8.62 98.5403 8.64C98.4203 8.66 98.3003 8.68 98.2003 8.7C98.1603 8.72 98.1203 8.72 98.1003 8.72C98.0803 8.72 98.0603 8.72 98.0403 8.74C98.0003 8.74 97.9603 8.74 97.9203 8.74C97.9003 8.76 97.8803 8.76 97.8603 8.76C97.8203 8.76 97.7603 8.76 97.7203 8.78C97.6603 8.78 97.6203 8.78 97.5603 8.78C97.5003 8.8 97.4403 8.8 97.4003 8.8C97.3803 8.8 97.3803 8.8 97.3603 8.8C97.3403 8.8 97.3003 8.8 97.2603 8.8C97.2403 8.8 97.2003 8.8 97.1803 8.8C97.1403 8.8 97.1003 8.8 97.0403 8.8H94.5803V15H92.6603V1.68H103.68C103.7 1.84 103.7 2 103.7 2.16C103.7 2.66 103.64 3.14 103.54 3.6C103.26 4.88 102.62 6 101.72 6.88C101.64 6.98 101.56 7.06 101.46 7.12C101.44 7.16 101.4 7.18 101.38 7.2L101.36 7.22C101.32 7.24 101.28 7.28 101.24 7.32C101.22 7.34 101.2 7.36 101.16 7.38C101.14 7.4 101.12 7.42 101.1 7.42C101.04 7.48 100.96 7.54 100.88 7.6C100.84 7.62 100.8 7.64 100.78 7.66H100.76C100.74 7.7 100.7 7.72 100.66 7.74C100.66 7.74 100.66 7.74 100.64 7.74C100.64 7.76 100.62 7.76 100.6 7.78L100.84 8.14ZM98.9203 6.5C99.4603 6.28 99.9403 5.94 100.38 5.52C100.92 4.98 101.32 4.32 101.56 3.6H94.5803V6.88H97.0403C97.7003 6.88 98.3403 6.76 98.9203 6.5ZM114.984 7.4C116.404 7.4 117.644 8.18 118.304 9.32C118.604 9.88 118.804 10.52 118.804 11.2C118.804 11.9 118.604 12.54 118.304 13.1C117.644 14.24 116.404 15 114.984 15H110.864C109.444 15 108.204 14.24 107.544 13.1C107.244 12.56 107.064 11.96 107.044 11.3H108.964C109.024 12.3 109.844 13.1 110.864 13.1H114.984C116.024 13.1 116.884 12.24 116.884 11.2C116.884 10.16 116.024 9.32 114.984 9.32H110.844C109.784 9.32 108.804 8.88 108.124 8.16C107.904 7.94 107.704 7.68 107.544 7.4C107.224 6.86 107.044 6.2 107.044 5.52C107.044 4.84 107.224 4.2 107.544 3.64C108.204 2.5 109.444 1.72 110.844 1.72H114.884C114.924 1.72 114.964 1.72 114.984 1.72C115.024 1.72 115.044 1.72 115.084 1.72C116.464 1.76 117.644 2.52 118.284 3.64C118.304 3.64 118.304 3.64 118.304 3.64C118.604 4.16 118.784 4.78 118.804 5.42H116.884C116.824 4.44 116.044 3.68 115.064 3.64H110.844C109.804 3.64 108.964 4.48 108.964 5.52C108.964 6.5 109.704 7.3 110.664 7.4C110.724 7.4 110.784 7.4 110.864 7.4C110.964 7.4 111.084 7.4 111.184 7.4H114.984ZM124.036 8.84V13.1H133.876V15H122.116V4.6H124.036V6.92H132.576V8.84H124.036ZM122.116 1.72H133.876V3.64H122.116V1.72Z" fill="white"/>
<path d="M3.8 24.05C4.75 24.05 5.56 23.5 5.94 22.7H6.98C6.54 24.04 5.29 25 3.8 25C2.13 25 0.74 23.77 0.51 22.16C0.48 22 0.47 21.84 0.47 21.67C0.47 21.51 0.48 21.36 0.5 21.2C0.73 19.58 2.12 18.34 3.8 18.34C5.32 18.34 6.61 19.35 7.01 20.74H5.99C5.63 19.89 4.79 19.3 3.8 19.3C2.66 19.3 1.69 20.12 1.48 21.2C1.45 21.35 1.43 21.51 1.43 21.67C1.43 21.84 1.45 22 1.48 22.16C1.71 23.24 2.66 24.05 3.8 24.05ZM17.6402 19.31C16.3302 19.31 15.2702 20.38 15.2702 21.68C15.2702 22.99 16.3302 24.05 17.6402 24.05C18.9402 24.05 20.0002 22.99 20.0002 21.68C20.0002 20.38 18.9402 19.31 17.6402 19.31ZM14.3102 21.68C14.3102 19.84 15.8002 18.36 17.6402 18.36C19.4702 18.36 20.9602 19.84 20.9602 21.68C20.9602 23.52 19.4702 25 17.6402 25C15.8002 25 14.3102 23.52 14.3102 21.68ZM28.2579 25V20.38L29.2179 21.34V25H28.2579ZM32.5779 18.36H33.5279V24.97L32.5779 24.02L29.2179 20.66L28.2579 19.7V18.35L32.5779 22.66V18.36ZM40.8384 25V20.38L41.7984 21.34V25H40.8384ZM45.1584 18.36H46.1084V24.97L45.1584 24.02L41.7984 20.66L40.8384 19.7V18.35L45.1584 22.66V18.36ZM54.4888 21.92V24.05H59.4088V25H53.5288V19.8H54.4888V20.96H58.7588V21.92H54.4888ZM53.5288 18.36H59.4088V19.32H53.5288V18.36ZM69.8273 24.05C70.7773 24.05 71.5873 23.5 71.9673 22.7H73.0073C72.5673 24.04 71.3173 25 69.8273 25C68.1573 25 66.7673 23.77 66.5373 22.16C66.5073 22 66.4973 21.84 66.4973 21.67C66.4973 21.51 66.5073 21.36 66.5273 21.2C66.7573 19.58 68.1473 18.34 69.8273 18.34C71.3473 18.34 72.6373 19.35 73.0373 20.74H72.0173C71.6573 19.89 70.8173 19.3 69.8273 19.3C68.6873 19.3 67.7173 20.12 67.5073 21.2C67.4773 21.35 67.4573 21.51 67.4573 21.67C67.4573 21.84 67.4773 22 67.5073 22.16C67.7373 23.24 68.6873 24.05 69.8273 24.05ZM82.8487 25H81.8887V19.8H82.8487V25ZM85.3887 19.32H79.4587V18.36H85.3887V19.32ZM92.6934 25H93.6534V18.35H92.6934V25ZM93.6234 18.38V24.97H92.7234V18.38H93.6234ZM92.6934 18.35H93.6534V25H92.6934V18.35ZM104.288 19.31C102.978 19.31 101.918 20.38 101.918 21.68C101.918 22.99 102.978 24.05 104.288 24.05C105.588 24.05 106.648 22.99 106.648 21.68C106.648 20.38 105.588 19.31 104.288 19.31ZM100.958 21.68C100.958 19.84 102.448 18.36 104.288 18.36C106.118 18.36 107.608 19.84 107.608 21.68C107.608 23.52 106.118 25 104.288 25C102.448 25 100.958 23.52 100.958 21.68ZM114.905 25V20.38L115.865 21.34V25H114.905ZM119.225 18.36H120.175V24.97L119.225 24.02L115.865 20.66L114.905 19.7V18.35L119.225 22.66V18.36ZM131.456 21.2C132.166 21.2 132.786 21.59 133.116 22.16C133.266 22.44 133.366 22.76 133.366 23.1C133.366 23.45 133.266 23.77 133.116 24.05C132.786 24.62 132.166 25 131.456 25H129.396C128.686 25 128.066 24.62 127.736 24.05C127.586 23.78 127.496 23.48 127.486 23.15H128.446C128.476 23.65 128.886 24.05 129.396 24.05H131.456C131.976 24.05 132.406 23.62 132.406 23.1C132.406 22.58 131.976 22.16 131.456 22.16H129.386C128.856 22.16 128.366 21.94 128.026 21.58C127.916 21.47 127.816 21.34 127.736 21.2C127.576 20.93 127.486 20.6 127.486 20.26C127.486 19.92 127.576 19.6 127.736 19.32C128.066 18.75 128.686 18.36 129.386 18.36H131.406C131.426 18.36 131.446 18.36 131.456 18.36C131.476 18.36 131.486 18.36 131.506 18.36C132.196 18.38 132.786 18.76 133.106 19.32C133.116 19.32 133.116 19.32 133.116 19.32C133.266 19.58 133.356 19.89 133.366 20.21H132.406C132.376 19.72 131.986 19.34 131.496 19.32H129.386C128.866 19.32 128.446 19.74 128.446 20.26C128.446 20.75 128.816 21.15 129.296 21.2C129.326 21.2 129.356 21.2 129.396 21.2C129.446 21.2 129.506 21.2 129.556 21.2H131.456Z" fill="white"/>
</svg>
